<mxfile host="app.diagrams.net" modified="2023-09-29T04:27:17.623Z" agent="Mozilla/5.0 (Windows NT 10.0; Win64; x64) AppleWebKit/537.36 (KHTML, like Gecko) Chrome/117.0.0.0 Safari/537.36 Edg/117.0.2045.43" etag="jYgaq1LyTgS7mtxwp6Kw" version="21.8.2" type="device">
  <diagram name="Page-1" id="ALNVaMCfbRmIATHTXwgW">
    <mxGraphModel dx="1226" dy="669" grid="1" gridSize="10" guides="1" tooltips="1" connect="1" arrows="1" fold="1" page="1" pageScale="1" pageWidth="2336" pageHeight="1654" math="0" shadow="0">
      <root>
        <mxCell id="0" />
        <mxCell id="1" parent="0" />
        <mxCell id="L2m1bIh3POB6tsuyUTpM-2" style="edgeStyle=orthogonalEdgeStyle;rounded=0;orthogonalLoop=1;jettySize=auto;html=1;" edge="1" parent="1" source="L2m1bIh3POB6tsuyUTpM-1">
          <mxGeometry relative="1" as="geometry">
            <mxPoint x="179.46153846153834" y="140" as="targetPoint" />
          </mxGeometry>
        </mxCell>
        <mxCell id="L2m1bIh3POB6tsuyUTpM-1" value="START" style="ellipse;whiteSpace=wrap;html=1;" vertex="1" parent="1">
          <mxGeometry x="119" y="20" width="120" height="80" as="geometry" />
        </mxCell>
        <mxCell id="L2m1bIh3POB6tsuyUTpM-8" style="edgeStyle=orthogonalEdgeStyle;rounded=0;orthogonalLoop=1;jettySize=auto;html=1;" edge="1" parent="1">
          <mxGeometry relative="1" as="geometry">
            <mxPoint x="179.5" y="300" as="targetPoint" />
            <mxPoint x="179.46153846153834" y="270" as="sourcePoint" />
          </mxGeometry>
        </mxCell>
        <mxCell id="L2m1bIh3POB6tsuyUTpM-3" value="float brtBarang, jrkPengiriman, ttlharga, hargaPerKilogram, hrgJarak.&lt;br&gt;String jnsBarang, jnsPengiriman, estimasi.&amp;nbsp;" style="shape=hexagon;perimeter=hexagonPerimeter2;whiteSpace=wrap;html=1;fixedSize=1;" vertex="1" parent="1">
          <mxGeometry x="40" y="140" width="277" height="130" as="geometry" />
        </mxCell>
        <mxCell id="L2m1bIh3POB6tsuyUTpM-10" style="edgeStyle=orthogonalEdgeStyle;rounded=0;orthogonalLoop=1;jettySize=auto;html=1;" edge="1" parent="1" source="L2m1bIh3POB6tsuyUTpM-5" target="L2m1bIh3POB6tsuyUTpM-9">
          <mxGeometry relative="1" as="geometry" />
        </mxCell>
        <mxCell id="L2m1bIh3POB6tsuyUTpM-5" value="input jnsBarang, brtBarang, jnsPengiriman, jrkPengiriman" style="shape=parallelogram;perimeter=parallelogramPerimeter;whiteSpace=wrap;html=1;fixedSize=1;" vertex="1" parent="1">
          <mxGeometry x="76" y="300" width="205" height="100" as="geometry" />
        </mxCell>
        <mxCell id="L2m1bIh3POB6tsuyUTpM-16" value="IYA" style="edgeStyle=orthogonalEdgeStyle;rounded=0;orthogonalLoop=1;jettySize=auto;html=1;" edge="1" parent="1" source="L2m1bIh3POB6tsuyUTpM-9">
          <mxGeometry relative="1" as="geometry">
            <mxPoint x="179" y="600" as="targetPoint" />
          </mxGeometry>
        </mxCell>
        <mxCell id="L2m1bIh3POB6tsuyUTpM-9" value="jnsBarang &quot;Barang kecil&quot;" style="rhombus;whiteSpace=wrap;html=1;" vertex="1" parent="1">
          <mxGeometry x="114.5" y="440" width="129" height="120" as="geometry" />
        </mxCell>
        <mxCell id="L2m1bIh3POB6tsuyUTpM-24" value="TIDAK" style="edgeStyle=orthogonalEdgeStyle;rounded=0;orthogonalLoop=1;jettySize=auto;html=1;" edge="1" parent="1" source="L2m1bIh3POB6tsuyUTpM-18" target="L2m1bIh3POB6tsuyUTpM-21">
          <mxGeometry relative="1" as="geometry" />
        </mxCell>
        <mxCell id="L2m1bIh3POB6tsuyUTpM-38" value="TIDAK" style="edgeStyle=orthogonalEdgeStyle;rounded=0;orthogonalLoop=1;jettySize=auto;html=1;" edge="1" parent="1">
          <mxGeometry relative="1" as="geometry">
            <mxPoint x="400" y="500" as="targetPoint" />
            <mxPoint x="266.9999999999998" y="705.0000000000002" as="sourcePoint" />
            <Array as="points">
              <mxPoint x="320" y="705" />
              <mxPoint x="320" y="500" />
            </Array>
          </mxGeometry>
        </mxCell>
        <mxCell id="L2m1bIh3POB6tsuyUTpM-52" value="IYA" style="edgeStyle=orthogonalEdgeStyle;rounded=0;orthogonalLoop=1;jettySize=auto;html=1;" edge="1" parent="1" source="L2m1bIh3POB6tsuyUTpM-18">
          <mxGeometry x="-0.3769" relative="1" as="geometry">
            <mxPoint x="510" y="1080" as="targetPoint" />
            <Array as="points">
              <mxPoint x="30" y="685" />
              <mxPoint x="30" y="1080" />
            </Array>
            <mxPoint as="offset" />
          </mxGeometry>
        </mxCell>
        <mxCell id="L2m1bIh3POB6tsuyUTpM-18" value="jnsPengiriman &quot;Reguler&quot;&lt;br&gt;hargaPerKilogram&lt;br&gt;=3000" style="rhombus;whiteSpace=wrap;html=1;" vertex="1" parent="1">
          <mxGeometry x="91" y="600" width="176" height="170" as="geometry" />
        </mxCell>
        <mxCell id="L2m1bIh3POB6tsuyUTpM-45" value="TIDAK" style="edgeStyle=orthogonalEdgeStyle;rounded=0;orthogonalLoop=1;jettySize=auto;html=1;entryX=0;entryY=0.5;entryDx=0;entryDy=0;" edge="1" parent="1" source="L2m1bIh3POB6tsuyUTpM-21" target="L2m1bIh3POB6tsuyUTpM-44">
          <mxGeometry relative="1" as="geometry">
            <Array as="points">
              <mxPoint x="350" y="895" />
              <mxPoint x="350" y="500" />
            </Array>
          </mxGeometry>
        </mxCell>
        <mxCell id="L2m1bIh3POB6tsuyUTpM-21" value="jnsPengiriman &quot;Express&quot;&lt;br&gt;hargaPerKilogram&lt;br&gt;=5000" style="rhombus;whiteSpace=wrap;html=1;" vertex="1" parent="1">
          <mxGeometry x="91" y="810" width="176" height="170" as="geometry" />
        </mxCell>
        <mxCell id="L2m1bIh3POB6tsuyUTpM-47" value="IYA" style="edgeStyle=orthogonalEdgeStyle;rounded=0;orthogonalLoop=1;jettySize=auto;html=1;entryX=0.5;entryY=0;entryDx=0;entryDy=0;" edge="1" parent="1" source="L2m1bIh3POB6tsuyUTpM-44" target="L2m1bIh3POB6tsuyUTpM-46">
          <mxGeometry relative="1" as="geometry" />
        </mxCell>
        <mxCell id="L2m1bIh3POB6tsuyUTpM-44" value="jnsBarang &quot;Barang besar&quot;" style="rhombus;whiteSpace=wrap;html=1;" vertex="1" parent="1">
          <mxGeometry x="400" y="440" width="129" height="120" as="geometry" />
        </mxCell>
        <mxCell id="L2m1bIh3POB6tsuyUTpM-49" value="TIDAK" style="edgeStyle=orthogonalEdgeStyle;rounded=0;orthogonalLoop=1;jettySize=auto;html=1;entryX=0.5;entryY=0;entryDx=0;entryDy=0;" edge="1" parent="1" source="L2m1bIh3POB6tsuyUTpM-46" target="L2m1bIh3POB6tsuyUTpM-48">
          <mxGeometry relative="1" as="geometry" />
        </mxCell>
        <mxCell id="L2m1bIh3POB6tsuyUTpM-46" value="jnsPengiriman &quot;Reguler&quot;&lt;br&gt;hargaPerKilogram&lt;br&gt;=10000" style="rhombus;whiteSpace=wrap;html=1;" vertex="1" parent="1">
          <mxGeometry x="376.5" y="600" width="176" height="170" as="geometry" />
        </mxCell>
        <mxCell id="L2m1bIh3POB6tsuyUTpM-56" value="IYA" style="edgeStyle=orthogonalEdgeStyle;rounded=0;orthogonalLoop=1;jettySize=auto;html=1;" edge="1" parent="1" source="L2m1bIh3POB6tsuyUTpM-48">
          <mxGeometry relative="1" as="geometry">
            <mxPoint x="510" y="1080" as="targetPoint" />
            <Array as="points">
              <mxPoint x="465" y="1080" />
            </Array>
          </mxGeometry>
        </mxCell>
        <mxCell id="L2m1bIh3POB6tsuyUTpM-48" value="jnsPengiriman &quot;Express&quot;&lt;br&gt;hargaPerKilogram&lt;br&gt;=15000" style="rhombus;whiteSpace=wrap;html=1;" vertex="1" parent="1">
          <mxGeometry x="376.5" y="810" width="176" height="170" as="geometry" />
        </mxCell>
      </root>
    </mxGraphModel>
  </diagram>
</mxfile>
